<svg xmlns="http://www.w3.org/2000/svg" width="1280" height="430" viewBox="0 0 1280 430" role="img" aria-labelledby="title desc">
  <title id="title">Paravane AI</title>
  <desc id="desc">A dark hero graphic for the Paravane AI GitHub organization profile.</desc>
  <defs>
    <linearGradient id="accent" x1="0" y1="0" x2="1" y2="1">
      <stop offset="0" stop-color="#38bdf8"/>
      <stop offset="0.55" stop-color="#22c55e"/>
      <stop offset="1" stop-color="#f59e0b"/>
    </linearGradient>
    <pattern id="dots" width="22" height="22" patternUnits="userSpaceOnUse">
      <circle cx="3" cy="3" r="2" fill="#334155"/>
    </pattern>
  </defs>
  <rect width="1280" height="430" fill="#0b0f17"/>
  <rect x="0" y="0" width="1280" height="430" fill="url(#dots)" opacity="0.35"/>
  <rect x="48" y="48" width="1184" height="334" rx="28" fill="#111827" stroke="#263244"/>
  <g transform="translate(92 86)">
    <rect x="0" y="0" width="96" height="96" rx="20" fill="#0f172a" stroke="#334155"/>
    <path d="M48 18 L79 36 V72 L48 90 L17 72 V36 Z" fill="none" stroke="url(#accent)" stroke-width="7" stroke-linejoin="round"/>
    <circle cx="48" cy="54" r="12" fill="url(#accent)"/>
  </g>
  <text x="92" y="232" fill="#f8fafc" font-family="Segoe UI, Inter, Arial, sans-serif" font-size="72" font-weight="700">Paravane AI</text>
  <text x="96" y="286" fill="#cbd5e1" font-family="Segoe UI, Inter, Arial, sans-serif" font-size="27">Focused tools for secure automation, infrastructure visibility, and operational workflows.</text>
  <g transform="translate(820 88)" opacity="0.95">
    <circle cx="68" cy="46" r="38" fill="none" stroke="#38bdf8" stroke-width="12"/>
    <rect x="162" y="10" width="92" height="72" rx="12" fill="#22c55e" opacity="0.86"/>
    <path d="M320 20 h92 v92 h-92z" fill="none" stroke="#e2e8f0" stroke-width="3" opacity="0.75"/>
    <circle cx="80" cy="186" r="52" fill="#2563eb" opacity="0.92"/>
    <rect x="184" y="150" width="78" height="78" rx="18" fill="#f59e0b" opacity="0.88"/>
    <path d="M328 158 h98 M328 182 h98 M328 206 h98" stroke="#38bdf8" stroke-width="10" stroke-linecap="round"/>
  </g>
</svg>
